<?xml version="1.0" standalone="no"?>
<!DOCTYPE svg PUBLIC "-//W3C//DTD SVG 20010904//EN"
 "http://www.w3.org/TR/2001/REC-SVG-20010904/DTD/svg10.dtd">
<svg version="1.0" xmlns="http://www.w3.org/2000/svg"
 width="4096.000000pt" height="4096.000000pt" viewBox="0 0 4096.000000 4096.000000"
 preserveAspectRatio="xMidYMid meet">
<metadata>
Created by potrace 1.16, written by Peter Selinger 2001-2019
</metadata>
<g transform="translate(0.000000,4096.000000) scale(0.100000,-0.100000)"
fill="#000000" stroke="none">
<path d="M15115 34134 c-1008 -56 -1923 -373 -2735 -950 -810 -574 -1462
-1420 -1811 -2346 l-44 -117 -1970 -3 -1970 -3 -100 -23 c-354 -80 -618 -224
-866 -471 -201 -201 -327 -402 -414 -661 -67 -200 -80 -287 -80 -550 1 -204 4
-248 23 -337 163 -749 758 -1286 1511 -1362 68 -7 735 -11 1986 -11 l1882 0
23 -62 c111 -313 315 -716 518 -1028 312 -480 766 -964 1227 -1305 897 -667
1949 -1015 3065 -1015 1218 0 2355 414 3300 1201 160 133 486 458 619 618 366
439 639 897 843 1408 l73 183 7001 0 c4846 0 7034 3 7105 11 601 61 1115 420
1374 961 114 239 155 411 162 693 5 175 2 216 -17 330 -41 245 -131 470 -271
681 -102 154 -302 353 -459 457 -185 122 -380 205 -610 259 l-95 22 -7095 3
-7096 3 -28 78 c-270 732 -735 1430 -1306 1960 -843 782 -1876 1247 -3015
1357 -157 15 -592 26 -730 19z m579 -3453 c312 -67 588 -209 815 -418 278
-256 451 -571 528 -958 24 -125 24 -451 0 -582 -66 -351 -223 -652 -469 -902
-759 -770 -2020 -648 -2623 254 -335 501 -378 1149 -111 1686 258 517 732 856
1321 943 17 2 122 3 235 1 165 -2 224 -7 304 -24z"/>
<path d="M25285 17064 c-165 -13 -390 -39 -520 -60 -1766 -290 -3263 -1493
-3926 -3158 l-74 -186 -7001 0 c-4846 0 -7034 -3 -7105 -11 -678 -69 -1250
-527 -1459 -1167 -64 -198 -74 -273 -74 -537 0 -264 10 -334 75 -535 86 -259
216 -469 418 -671 245 -245 495 -383 846 -467 l110 -26 7095 -3 7095 -3 44
-118 c267 -716 747 -1425 1319 -1946 848 -772 1849 -1218 2996 -1333 120 -12
261 -17 476 -17 328 0 517 14 805 59 1615 253 3019 1275 3765 2739 85 167 193
414 241 548 l24 68 1970 2 1970 3 100 23 c354 80 618 224 866 471 247 248 393
515 471 866 20 88 22 128 22 340 0 211 -2 252 -22 342 -164 750 -758 1286
-1511 1362 -68 7 -735 11 -1985 11 l-1881 0 -73 183 c-204 511 -477 969 -843
1408 -133 160 -459 485 -619 618 -802 668 -1728 1061 -2770 1177 -138 15 -721
27 -845 18z m476 -3425 c758 -77 1359 -627 1511 -1381 30 -150 33 -462 5 -603
-77 -388 -249 -702 -528 -958 -226 -209 -498 -348 -815 -419 -87 -19 -128 -22
-334 -22 -206 0 -247 3 -334 22 -575 128 -1025 502 -1240 1030 -128 314 -159
656 -90 991 172 834 979 1427 1825 1340z"/>
</g>
</svg>
