<?xml version="1.0" standalone="no"?>
<!DOCTYPE svg PUBLIC "-//W3C//DTD SVG 20010904//EN"
 "http://www.w3.org/TR/2001/REC-SVG-20010904/DTD/svg10.dtd">
<svg version="1.0" xmlns="http://www.w3.org/2000/svg"
 width="1280.000000pt" height="1280.000000pt" viewBox="0 0 1280.000000 1280.000000"
 preserveAspectRatio="xMidYMid meet">
<metadata>
Created by potrace 1.16, written by Peter Selinger 2001-2019
</metadata>
<g transform="translate(0.000000,1280.000000) scale(0.100000,-0.100000)"
fill="#000000" stroke="none">
<path d="M4875 10933 c-1168 -69 -2196 -635 -2862 -1575 -365 -515 -589 -1108
-665 -1763 -17 -145 -17 -645 0 -790 118 -1014 600 -1895 1380 -2522 552 -444
1202 -713 1932 -799 178 -21 599 -24 775 -5 729 77 1399 349 1956 792 l100 80
1769 -1216 c973 -669 1791 -1228 1817 -1243 40 -22 60 -27 123 -27 64 1 83 5
128 30 164 90 192 310 56 436 -41 37 -3715 2564 -3794 2608 -38 22 -57 26
-125 26 -98 0 -124 -13 -232 -111 -455 -413 -987 -681 -1573 -793 -282 -53
-664 -68 -945 -36 -623 71 -1209 321 -1692 722 -128 106 -348 331 -452 462
-375 472 -597 1002 -677 1616 -24 179 -24 571 0 750 79 606 290 1117 660 1595
103 133 390 423 523 528 409 322 868 535 1373 636 378 76 826 77 1210 5 780
-147 1484 -587 1960 -1224 400 -535 607 -1121 638 -1801 9 -183 10 -193 37
-243 90 -165 313 -191 438 -51 61 67 67 90 67 267 -1 637 -215 1353 -574 1913
-158 247 -304 429 -516 641 -381 382 -811 661 -1310 852 -477 182 -1032 270
-1525 240z"/>
</g>
</svg>
